<svg xmlns="http://www.w3.org/2000/svg" viewBox="0 0 260 420" width="260" height="420" role="img" aria-label="Tarot card back: an all-seeing eye within a sunburst, a crescent moon and stars, in gold line art">
  <title>Tarot card back</title>
  <!-- Original line-art in the style of mystic tarot card backs. Colors: dark card body + gold strokes. -->
  <defs>
    <!-- 4-point star reused for the small sparkles -->
    <path id="spark" d="M0 -7 L1.6 -1.6 L7 0 L1.6 1.6 L0 7 L-1.6 1.6 L-7 0 L-1.6 -1.6 Z"/>
  </defs>

  <!-- Card body -->
  <rect x="1" y="1" width="258" height="418" rx="16" fill="#1A0F11" stroke="#D9A94F" stroke-width="2"/>

  <!-- Double frame: outer line + inner line with cut corners -->
  <g fill="none" stroke="#D9A94F" stroke-linecap="round" stroke-linejoin="round">
    <rect x="14" y="14" width="232" height="392" rx="8" stroke-width="1.2"/>
    <path d="M26 40 L26 30 Q26 26 30 26 L40 26 M220 26 L230 26 Q234 26 234 30 L234 40 M234 380 L234 390 Q234 394 230 394 L220 394 M40 394 L30 394 Q26 394 26 390 L26 380" stroke-width="1"/>
  </g>

  <!-- Top: small sun -->
  <g fill="none" stroke="#D9A94F" stroke-width="1.2" stroke-linecap="round" transform="translate(130 62)">
    <circle r="7"/>
    <g>
      <path d="M0 -12 V-17 M0 12 V17 M-12 0 H-17 M12 0 H17"/>
      <path d="M8.5 -8.5 L12 -12 M-8.5 -8.5 L-12 -12 M8.5 8.5 L12 12 M-8.5 8.5 L-12 12"/>
    </g>
  </g>

  <!-- Center: all-seeing eye in a sunburst ring -->
  <g fill="none" stroke="#D9A94F" stroke-linecap="round" stroke-linejoin="round" transform="translate(130 210)">
    <!-- long rays (16) -->
    <g stroke-width="1.2">
      <path d="M0 -62 V-84 M0 62 V84 M-62 0 H-84 M62 0 H84"/>
      <path d="M44 -44 L60 -60 M-44 -44 L-60 -60 M44 44 L60 60 M-44 44 L-60 60"/>
      <path d="M24 -57 L31 -77 M-24 -57 L-31 -77 M24 57 L31 77 M-24 57 L-31 77"/>
      <path d="M57 -24 L77 -31 M-57 -24 L-77 -31 M57 24 L77 31 M-57 24 L-77 31"/>
    </g>
    <!-- rings -->
    <circle r="56" stroke-width="1.4"/>
    <circle r="48" stroke-width="0.8" stroke-dasharray="2 4"/>
    <!-- eye outline -->
    <path d="M-34 0 Q0 -30 34 0 Q0 30 -34 0 Z" stroke-width="1.6"/>
    <!-- iris + pupil -->
    <circle r="13" stroke-width="1.4"/>
    <circle r="5" fill="#D9A94F" stroke="none"/>
    <!-- lashes -->
    <path d="M0 -26 V-34 M-16 -22 L-20 -29 M16 -22 L20 -29" stroke-width="1.2"/>
  </g>

  <!-- Bottom: crescent moon -->
  <path d="M140 338 A22 22 0 1 1 118 318 A17 17 0 1 0 140 338 Z" transform="translate(0 0)" fill="none" stroke="#D9A94F" stroke-width="1.4" stroke-linejoin="round"/>

  <!-- Stars -->
  <g fill="#D9A94F">
    <use href="#spark" x="130" y="372" transform="translate(0 0) scale(1)"/>
    <use href="#spark" x="52" y="120" transform="translate(52 120) scale(0.6) translate(-52 -120)"/>
    <use href="#spark" x="208" y="120" transform="translate(208 120) scale(0.6) translate(-208 -120)"/>
    <use href="#spark" x="52" y="300" transform="translate(52 300) scale(0.6) translate(-52 -300)"/>
    <use href="#spark" x="208" y="300" transform="translate(208 300) scale(0.6) translate(-208 -300)"/>
    <circle cx="70" cy="80" r="1.4"/><circle cx="190" cy="80" r="1.4"/>
    <circle cx="70" cy="345" r="1.4"/><circle cx="190" cy="345" r="1.4"/>
    <circle cx="40" cy="210" r="1.4"/><circle cx="220" cy="210" r="1.4"/>
  </g>
</svg>
